<svg width="20" height="14" viewBox="0 0 20 14" fill="none" xmlns="http://www.w3.org/2000/svg">
<path fill-rule="evenodd" clip-rule="evenodd" d="M2.07476 0.0412484C1.81225 0.116617 1.55799 0.480617 1.55869 0.780028C1.5594 1.09224 1.59156 1.1315 2.9972 2.53618L4.35023 3.8883L2.9972 5.24041C1.86099 6.37587 1.63733 6.61747 1.60153 6.74816C1.57808 6.83376 1.55881 7.20582 1.55869 7.575L1.55846 8.24619L1.07971 8.24705C0.700001 8.24771 0.568297 8.26269 0.443042 8.31934C0.251661 8.40588 0.0902162 8.58848 0.0331185 8.78295C0.00427658 8.88128 -0.00537649 9.6506 0.00279149 11.2033L0.0147504 13.4796L0.10749 13.6281C0.158491 13.7098 0.271514 13.8236 0.358665 13.881L0.517101 13.9854L6.87066 13.9972C11.312 14.0054 13.3536 13.996 13.6541 13.9658C14.5216 13.879 15.2248 13.6792 16.0381 13.2886C18.2418 12.2303 19.7035 10.1449 19.9679 7.682C20.0548 6.87229 19.973 6.54918 19.6264 6.33467C19.4853 6.24732 19.4371 6.24167 18.7347 6.23012L17.9921 6.21794L16.468 4.70661C15.182 3.4315 14.9194 3.18862 14.7875 3.1529C14.6888 3.12617 14.1272 3.11045 13.2644 3.11033L11.8977 3.1101L10.3724 1.59628C9.08488 0.318442 8.82272 0.0758782 8.69079 0.0401201C8.49077 -0.0140812 2.26376 -0.0130307 2.07476 0.0412484ZM8.88619 2.33191L9.66707 3.1101H7.73255H5.79803L5.01715 2.33191L4.23627 1.55371H6.17079H8.10531L8.88619 2.33191ZM14.9829 5.44469L15.7637 6.22288L14.3963 6.22311C13.5246 6.22323 12.9721 6.2388 12.8725 6.26603C12.7436 6.30128 12.5442 6.47899 11.7374 7.27749L10.7588 8.24619H6.94022H3.12171V7.78919V7.33224L4.46005 5.99935L5.79834 4.66649H10.0002H14.202L14.9829 5.44469ZM18.3634 7.87157C18.3634 8.03479 18.1772 8.70062 18.0333 9.05244C17.7415 9.76534 17.3112 10.3853 16.716 10.9504C15.9728 11.656 15.133 12.0973 14.0722 12.3397L13.6932 12.4263L7.62582 12.4383L1.55846 12.4504V11.127V9.80375L6.43384 9.79344L11.3092 9.78312L11.4656 9.69826C11.5515 9.65157 12.035 9.20072 12.54 8.69634L13.4581 7.77927H15.9107H18.3634V7.87157Z" fill="#A9AAAE"/>
</svg>
