<svg width="32" height="32" viewBox="0 0 32 32" fill="none" xmlns="http://www.w3.org/2000/svg">
<path fill-rule="evenodd" clip-rule="evenodd" d="M5.25867 1.25V2.5L4.33695 2.50106C3.77036 2.50175 3.2467 2.53756 2.9778 2.594C1.57129 2.88938 0.398856 4.062 0.10353 5.46875C-0.0345099 6.12656 -0.0345099 28.3734 0.10353 29.0312C0.398856 30.438 1.57129 31.6106 2.9778 31.906C3.35087 31.9843 4.74832 31.998 12.4772 31.9989L21.5392 32L26.7675 26.5781L31.9959 21.1562L31.999 13.5312C32.0024 5.07312 32.0192 5.44156 31.5889 4.5625C31.2727 3.91663 30.5878 3.23163 29.9421 2.91537C29.2916 2.59687 28.775 2.50237 27.6768 2.50106L26.7551 2.5V1.25V0H25.5053H24.2555V1.25V2.5H16.0069H7.75826V1.25V0H6.50847H5.25867V1.25ZM5.25867 6.25V7.5H6.50847H7.75826V6.25V5H16.0069H24.2555V6.25V7.5H25.5053H26.7551V6.24438V4.98881L27.7128 5.01C28.6133 5.03 28.6843 5.04063 28.9011 5.1875C29.028 5.27344 29.2086 5.45375 29.3026 5.58825L29.4734 5.83275L29.4927 7.54138L29.512 9.25H16.0106H2.50913L2.50951 7.67188C2.50969 6.79769 2.53813 5.99194 2.57324 5.8655C2.65054 5.58712 3.07791 5.14531 3.34462 5.068C3.45222 5.03681 3.92689 5.00875 4.39944 5.00562L5.25867 5V6.25ZM29.5046 15.5625V19.375L26.3333 19.3761C22.7878 19.3773 22.633 19.3915 21.8184 19.7904C21.1727 20.1066 20.4878 20.7916 20.1716 21.4375C19.7701 22.2576 19.7586 22.3885 19.7573 26.1416L19.7563 29.5018L11.5499 29.4853L3.34355 29.4688L3.11278 29.3125C2.98586 29.2266 2.80514 29.0462 2.71122 28.9116L2.54037 28.6669L2.52388 20.2085L2.50738 11.75H16.006H29.5046V15.5625ZM27.7445 21.9261C27.7331 21.9542 26.5005 23.2467 25.0054 24.7984L22.2871 27.6196L22.2707 25.3037C22.2605 23.8693 22.2786 22.8976 22.3182 22.7507C22.3953 22.4642 22.8186 22.0221 23.0913 21.943C23.3354 21.8723 27.7731 21.8561 27.7445 21.9261Z" fill="#205694"/>
</svg>
