<svg width="32" height="43" viewBox="0 0 32 43" fill="none" xmlns="http://www.w3.org/2000/svg">
<path fill-rule="evenodd" clip-rule="evenodd" d="M14.8515 0.120833C14.0462 0.297912 13.074 0.827722 12.4294 1.4407L11.8728 1.97009L11.2903 1.81376C10.2453 1.53327 8.94339 1.72992 7.96689 2.31584C7.08589 2.84439 6.32108 3.81632 5.97556 4.84645C5.7093 5.64012 5.70831 6.93789 5.97334 7.72769C6.29983 8.7007 6.93975 9.55569 7.75733 10.1113L8.19606 10.4094L8.22461 14.8812C8.25194 19.1691 8.26047 19.3799 8.43171 20.0069C8.81112 21.3966 9.55665 22.7164 10.5182 23.7009L11.0771 24.273V25.1521V26.0313H9.93426C8.5973 26.0313 7.79515 26.1317 6.81996 26.421C3.27431 27.4729 0.596604 30.6403 0.0879602 34.3841C0.0369235 34.7598 0 36.4948 0 38.5152C0 41.8407 0.00746681 42.0137 0.165172 42.3302C0.271512 42.5436 0.445791 42.722 0.654287 42.8309C0.975358 42.9986 1.10656 43 16.0002 43C30.8939 43 31.0251 42.9986 31.3462 42.8309C31.5547 42.722 31.729 42.5436 31.8353 42.3302C31.993 42.0137 32.0005 41.8412 32 38.5302C31.9995 34.6858 31.9402 33.9746 31.5119 32.6654C30.3839 29.2186 27.5387 26.742 24.0392 26.161C23.6018 26.0884 22.7505 26.0318 22.0926 26.0316L20.9234 26.0313V25.1521V24.273L21.4822 23.7009C22.4454 22.7148 23.1677 21.4365 23.5591 20.025C23.7403 19.3717 23.7463 19.2294 23.7755 14.8902L23.8055 10.4273L24.2482 10.1151C25.0821 9.52721 25.7029 8.69406 26.0271 7.72769C26.2922 6.93789 26.2912 5.64012 26.0249 4.84645C25.6794 3.81632 24.9146 2.84439 24.0336 2.31584C23.0571 1.72992 21.7552 1.53327 20.7101 1.81376L20.1276 1.97009L19.5711 1.4407C18.3149 0.245998 16.5398 -0.250378 14.8515 0.120833ZM17.1696 2.78391C17.6774 3.02198 18.2881 3.59362 18.5055 4.0343C18.9587 4.95305 19.6848 5.166 20.5191 4.62476C21.2294 4.16401 21.7418 4.08529 22.4417 4.32949C23.1985 4.59352 23.7952 5.458 23.7952 6.29047C23.7952 7.02617 23.2673 7.87805 22.6447 8.14712C21.4031 8.68373 21.3816 8.72136 21.3485 10.4125L21.3223 11.7507H15.9946H10.6668V10.53C10.6668 8.90634 10.5533 8.63744 9.73299 8.31865C8.82146 7.96441 8.30535 7.32724 8.22347 6.4552C8.11228 5.27058 9.1162 4.17425 10.2917 4.19677C10.6851 4.20433 10.9694 4.30908 11.5284 4.6524C12.2627 5.10342 12.9082 4.96674 13.3502 4.26666C13.9655 3.29213 14.3497 2.94419 15.1223 2.6616C15.7166 2.44429 16.5513 2.49418 17.1696 2.78391ZM21.3323 16.4339C21.3305 18.9449 21.2632 19.4127 20.7482 20.4871C20.268 21.489 19.3584 22.4202 18.3798 22.9118C16.7998 23.7056 15.2007 23.7056 13.6207 22.9118C12.6421 22.4202 11.7324 21.489 11.2523 20.4871C10.7373 19.4127 10.6699 18.9449 10.6682 16.4339L10.6668 14.2708H16.0002H21.3337L21.3323 16.4339ZM16.0002 25.9748C17.0383 25.9748 17.3827 25.9428 17.8738 25.8008L18.4757 25.6267L18.4475 26.9841C18.4233 28.1455 18.3944 28.3966 18.2472 28.7237C17.9961 29.2818 17.6104 29.6893 17.0819 29.9551C16.6974 30.1483 16.5077 30.1895 16.0002 30.1895C14.9743 30.1895 14.1795 29.671 13.7532 28.7237C13.606 28.3966 13.5771 28.1455 13.553 26.9841L13.5248 25.6267L14.1267 25.8008C14.6178 25.9428 14.9622 25.9748 16.0002 25.9748ZM11.3032 29.1604C11.9431 31.362 14.0492 32.8686 16.2874 32.7258C16.6485 32.7028 17.0085 32.6573 17.0874 32.6247C17.223 32.5689 17.231 32.7875 17.231 36.5227V40.4799H12.7181H8.20525V38.7965C8.20525 37.2751 8.18933 37.0811 8.04008 36.7816C7.85431 36.4088 7.38161 36.1117 6.97446 36.1117C6.56732 36.1117 6.09461 36.4088 5.90885 36.7816C5.75959 37.0811 5.74367 37.2751 5.74367 38.7965V40.4799H4.09631H2.44886L2.48045 37.4768C2.51187 34.4951 2.51368 34.4684 2.73399 33.7338C3.44809 31.3529 5.14157 29.5792 7.35888 28.8897C8.21953 28.622 8.61001 28.5722 9.93246 28.5613L11.1262 28.5514L11.3032 29.1604ZM24.4768 28.8358C26.8475 29.5629 28.5322 31.2856 29.2665 33.7338C29.4868 34.4684 29.4886 34.4951 29.52 37.4768L29.5516 40.4799H27.9042H26.2568V38.7965C26.2568 37.2751 26.2409 37.0811 26.0916 36.7816C25.9059 36.4088 25.4332 36.1117 25.026 36.1117C24.6189 36.1117 24.1462 36.4088 23.9604 36.7816C23.8111 37.0811 23.7952 37.2751 23.7952 38.7965V40.4799H21.7439H19.6926V35.7759V31.0719L19.9788 30.6641C20.3221 30.1748 20.6311 29.4986 20.7666 28.9402L20.8658 28.5312L22.31 28.5727C23.5597 28.6087 23.8516 28.6441 24.4768 28.8358ZM13.7652 35.4449C13.4188 35.6321 13.1284 36.1278 13.1284 36.5317C13.1284 36.9486 13.4186 37.4325 13.7827 37.6227C13.9607 37.7157 14.2202 37.7918 14.3592 37.7918C14.9835 37.7918 15.59 37.1709 15.59 36.5317C15.59 36.1149 15.2998 35.631 14.9357 35.4408C14.5314 35.2297 14.1611 35.2309 13.7652 35.4449Z" fill="#205694"/>
</svg>
