<svg  viewBox="0 0 20 20"  xmlns="http://www.w3.org/2000/svg">
<path fill-rule="evenodd" clip-rule="evenodd" d="M9.21001 0.0386002C5.87696 0.309563 2.90685 2.21401 1.26177 5.13494C-0.119983 7.58831 -0.382109 10.5916 0.550703 13.2814C1.04323 14.7016 1.78005 15.8879 2.85248 16.9873C5.85726 20.0677 10.493 20.8756 14.3698 18.9945C16.4617 17.9794 18.1999 16.1894 19.1263 14.0962C20.6513 10.65 20.1577 6.75011 17.8196 3.77412C17.2708 3.07543 16.1767 2.08712 15.4145 1.60135C14.5644 1.0596 13.5116 0.596206 12.579 0.353281C11.8705 0.168691 11.3996 0.0899036 10.6812 0.03566C10.0425 -0.0125755 9.83396 -0.0121493 9.21001 0.0386002ZM11.2995 1.92843C12.1624 2.08196 12.7802 2.2781 13.532 2.63731C16.6884 4.14518 18.5301 7.47654 18.1239 10.9432C17.7674 13.9871 15.7378 16.5831 12.8773 17.654C9.27645 19.0021 5.256 17.688 3.14671 14.4735C2.53743 13.545 2.13147 12.498 1.90999 11.2839C1.80662 10.7174 1.80662 9.29368 1.90999 8.72721C2.07373 7.82961 2.26456 7.22863 2.62515 6.47505C3.84499 3.92548 6.2378 2.22424 9.1034 1.86912C9.55947 1.81258 10.8432 1.84726 11.2995 1.92843ZM9.57247 3.75239C9.46693 3.80872 9.32301 3.93647 9.25265 4.03626L9.12472 4.21774L9.11193 7.18623C9.10263 9.3397 9.11261 10.2015 9.14839 10.3251C9.18916 10.4661 9.44919 10.748 10.6528 11.956C12.2029 13.5119 12.3457 13.6275 12.7164 13.6275C13.3752 13.6275 13.8075 12.9523 13.535 12.3491C13.4716 12.2087 13.1068 11.8152 12.1723 10.8791L10.8963 9.60073L10.8847 6.91258L10.8731 4.22443L10.7565 4.05766C10.57 3.79083 10.3738 3.68238 10.0462 3.66495C9.812 3.65251 9.73196 3.66725 9.57247 3.75239Z" />
</svg>
