<svg width="41" height="36" viewBox="0 0 41 36" fill="none" xmlns="http://www.w3.org/2000/svg">
<path fill-rule="evenodd" clip-rule="evenodd" d="M36.1969 9.48505V18.9702L35.7251 19.2243C35.4655 19.3641 35.053 19.6807 34.8085 19.9278C33.7186 21.0292 33.4336 22.6761 34.089 24.0852C34.3465 24.6387 35.1988 25.5159 35.7555 25.8003L36.1568 26.0052L36.178 28.5895C36.1952 30.6822 36.1762 31.2646 36.0781 31.6517C35.7844 32.8101 34.853 33.5316 33.6632 33.5226C32.8017 33.5161 31.9871 32.9914 31.5555 32.1651C31.3439 31.76 31.3407 31.7293 31.3155 29.9092C31.3016 28.8944 31.3072 28.064 31.3281 28.064C31.3491 28.064 31.6034 28.1715 31.8933 28.303C32.1832 28.4344 32.4376 28.514 32.4585 28.4796C32.4795 28.4454 32.6984 27.9455 32.9452 27.3688C33.2892 26.5647 33.3697 26.3045 33.2905 26.2534C33.2336 26.2168 32.2299 25.7724 31.0601 25.2662L28.9332 24.3456L28.9123 28.0448C28.889 32.1654 28.8971 32.2491 29.4217 33.3071C29.946 34.3647 30.8404 35.1882 31.943 35.6286C33.3149 36.1766 34.5768 36.1195 35.9238 35.4486C37.0375 34.894 37.9603 33.7968 38.383 32.525C38.5481 32.0282 38.5599 31.8244 38.5867 28.9945L38.6152 25.9914L39.0684 25.7515C39.9423 25.2891 40.6318 24.398 40.8897 23.3973C41.3032 21.7929 40.5235 20.0242 39.0665 19.2617L38.6052 19.0202L38.605 9.51011L38.6048 0H37.4009H36.1969V9.48505ZM14.1544 5.10837C13.3893 5.27197 9.10301 6.86107 9.12886 6.97162C9.14017 7.02013 10.0139 8.36955 11.0706 9.97025L12.9917 12.8806L12.5673 13.7362C12.3339 14.2067 11.9541 15.1558 11.7233 15.8451L11.3037 17.0985L10.6474 16.8531C9.09531 16.273 8.66919 16.1449 8.02147 16.0639C6.95486 15.9307 5.78623 16.1311 4.8543 16.6073C4.39776 16.8406 -0.00248709 19.7942 1.0548e-06 19.8657C0.000883946 19.8914 1.99646 20.8403 4.43452 21.9744C6.87267 23.1085 8.89032 24.0575 8.91833 24.0833C8.94634 24.1091 9.05341 26.3306 9.15639 29.0202C9.25928 31.7098 9.36708 33.9488 9.39589 33.996C9.48169 34.1363 14.0008 31.045 14.5509 30.4698C15.7423 29.2237 16.2061 27.8056 16.2101 25.3972L16.2115 24.5553L16.8335 24.6048C19.0884 24.7844 20.1356 24.7424 21.7898 24.4062C26.7344 23.4011 30.9218 19.7893 32.6891 15.0053C33.2892 13.3807 33.6513 11.4184 33.6622 9.73235C33.6685 8.74501 33.6616 8.70307 33.4072 8.18016C32.9542 7.24861 32.3258 6.72132 31.2414 6.36281C30.387 6.08031 28.9091 5.69674 28.2638 5.59008C26.6854 5.32899 24.6172 5.365 22.9895 5.68198C22.079 5.85928 20.434 6.37749 19.8876 6.65927L19.5743 6.82076L19.189 6.47231C18.6477 5.98265 17.8857 5.54742 17.1345 5.29882C16.6088 5.12484 16.3105 5.08185 15.4891 5.06189C14.9373 5.04851 14.3367 5.06936 14.1544 5.10837ZM16.7271 7.77177C17.0174 7.90901 17.2549 8.05533 17.2549 8.09694C17.2549 8.13855 17.0472 8.32891 16.7934 8.52009C16.5396 8.71118 15.9135 9.28244 15.4022 9.78962L14.4724 10.7118L13.6565 9.46964C13.2077 8.78645 12.8405 8.2053 12.8405 8.17805C12.8405 8.13263 14.275 7.60225 14.6464 7.51043C14.7347 7.48853 15.1202 7.48229 15.5031 7.4964C16.0797 7.51773 16.2899 7.56502 16.7271 7.77177ZM27.6599 7.99279C28.4521 8.1117 30.5882 8.67257 30.9086 8.84583C30.991 8.89044 31.1166 9.04049 31.1877 9.17935C31.3015 9.40191 31.3056 9.54353 31.2223 10.3733C31.1019 11.5739 30.8773 12.7605 30.6143 13.5859C30.3415 14.4421 29.5736 16.0311 29.068 16.7853C28.6503 17.4085 27.8087 18.4061 27.4383 18.7172L27.2275 18.8942L25.9534 18.1953C23.9222 17.0814 23.3119 16.6053 22.473 15.4803C21.6219 14.3387 21.1139 13.0398 20.9552 11.5987C20.8634 10.7659 20.9329 8.90714 21.059 8.8206C21.2836 8.66633 22.9793 8.16913 23.7466 8.03254C24.8239 7.84071 26.5307 7.82336 27.6599 7.99279ZM18.4844 11.2663C18.5755 12.8757 18.9481 14.2227 19.7249 15.7516C19.7408 15.7829 19.2302 16.161 18.5902 16.592L17.4266 17.3754L18.0832 18.3787C18.5252 19.0541 18.7769 19.3684 18.8532 19.3405C18.9155 19.3177 19.446 18.9717 20.032 18.5716C20.618 18.1715 21.1192 17.8441 21.146 17.8441C21.1727 17.8441 21.4669 18.0841 21.7997 18.3775C22.4723 18.9703 23.3779 19.5833 24.3782 20.123C24.7423 20.3194 25.0402 20.5098 25.0403 20.546C25.0404 20.6436 23.492 21.3653 22.7529 21.6121C21.1398 22.1508 19.4868 22.3538 17.7574 22.2253C15.6815 22.071 12.399 21.804 12.3826 21.7879C12.3569 21.7628 14.1686 16.1497 14.3553 15.6759C14.8091 14.5245 15.6472 13.151 16.5217 12.1259C16.9606 11.6114 18.2694 10.3889 18.3864 10.3841C18.4128 10.3829 18.4568 10.78 18.4844 11.2663ZM24.599 11.0806C24.1134 11.4146 23.6669 11.7171 23.6068 11.7529C23.5236 11.8025 23.6581 12.0608 24.1734 12.8404L24.8491 13.8628L25.8075 13.2178C26.3346 12.863 26.7771 12.5384 26.791 12.4964C26.8123 12.4318 25.5536 10.4537 25.5003 10.4682C25.4902 10.471 25.0846 10.7465 24.599 11.0806ZM9.34902 18.9755C9.96704 19.2089 10.4875 19.4145 10.5055 19.4324C10.557 19.4836 9.84721 21.7374 9.77963 21.7374C9.66076 21.7374 4.97469 19.5218 4.97469 19.4656C4.97469 19.3525 5.85558 18.82 6.31364 18.6561C6.68879 18.5221 6.92259 18.4953 7.50297 18.5202C8.13593 18.5474 8.36443 18.6037 9.34902 18.9755ZM37.8607 21.41C38.2265 21.5778 38.4928 21.9348 38.5733 22.3654C38.6086 22.5544 38.5692 22.7365 38.4331 23.0129C37.8538 24.1889 36.1962 23.8075 36.1973 22.4984C36.1977 21.9861 36.4023 21.65 36.8501 21.426C37.2772 21.2124 37.4247 21.21 37.8607 21.41ZM13.001 24.3181L13.7635 24.3735L13.7875 24.8845C13.8006 25.1655 13.7777 25.8284 13.7364 26.3576C13.6543 27.4101 13.4727 27.9487 12.9942 28.5594C12.7149 28.9156 11.7387 29.6542 11.6567 29.5713C11.6131 29.5273 11.4195 25.7024 11.401 24.5212L11.3957 24.1825L11.8171 24.2225C12.0488 24.2446 12.5816 24.2876 13.001 24.3181Z" fill="#205694"/>
</svg>
