<svg width="44" height="37" viewBox="0 0 44 37" fill="none" xmlns="http://www.w3.org/2000/svg">
<path fill-rule="evenodd" clip-rule="evenodd" d="M12.3173 0.107961C10.0732 0.535821 8.14021 1.79787 6.91262 3.63686C4.75819 6.86433 5.14298 10.9925 7.86695 13.8749L8.41476 14.4546L7.45123 14.9365C6.9213 15.2016 6.15541 15.6693 5.74922 15.9759L5.01082 16.5334L2.89815 16.5591C0.539037 16.5879 0.498564 16.5979 0.159056 17.2297C0.0112568 17.5048 0 17.7891 0 21.2455C0 24.4998 0.0174437 25.0019 0.139464 25.2587C0.310035 25.6174 0.671799 25.8861 1.07137 25.9508L1.37092 25.9994L1.39438 31.086C1.41741 36.071 1.42136 36.1774 1.59503 36.4095C1.69247 36.5397 1.87894 36.7259 2.00947 36.8231L2.2468 37H21.998H41.7492L41.9866 36.8231C42.1171 36.7259 42.3036 36.5397 42.401 36.4095C42.5747 36.1774 42.5786 36.071 42.6016 31.086L42.6251 25.9994L42.9247 25.9508C43.3242 25.8861 43.686 25.6174 43.8566 25.2587C43.9786 25.0019 43.996 24.4998 43.996 21.2455C43.996 16.2185 44.2304 16.5973 41.0979 16.5591L38.9852 16.5334L38.2468 15.9791C37.8406 15.6743 37.2668 15.3 36.9716 15.1472C36.6764 14.9943 36.4374 14.8501 36.4405 14.8265C36.4436 14.8029 36.6758 14.5986 36.9567 14.3726C38.1463 13.4149 39.244 11.6442 39.6265 10.0658C40.0042 8.5068 39.8513 6.56505 39.2304 5.04001C38.3949 2.98718 36.4675 1.17152 34.3636 0.455275C29.7058 -1.13033 24.8545 1.56318 23.6564 6.39993C23.5565 6.80317 23.5139 7.34065 23.5153 8.1787C23.5169 9.19285 23.5516 9.50791 23.7381 10.2049C24.0144 11.2377 24.5242 12.2722 25.1808 13.1324L25.6882 13.7971H22.726C21.0968 13.7971 19.7638 13.7769 19.7638 13.7522C19.7638 13.7275 19.9718 13.4348 20.2259 13.1019C23.8114 8.40404 21.3472 1.59972 15.5533 0.199915C14.769 0.0104325 13.0805 -0.0375175 12.3173 0.107961ZM15.3814 2.81811C16.2944 3.12073 17.0064 3.56515 17.7038 4.26766C20.3824 6.96589 19.6206 11.4533 16.1909 13.1789C14.959 13.7988 13.3634 13.9269 12.0713 13.5099C9.42752 12.6565 7.76169 10.0542 8.16341 7.4049C8.53428 4.95912 10.2503 3.16911 12.7235 2.64792C13.3421 2.51763 14.7461 2.60744 15.3814 2.81811ZM32.7959 2.6945C34.7887 3.10538 36.3173 4.47576 37.0009 6.464C37.2013 7.04669 37.2368 7.29073 37.2382 8.09292C37.2407 9.54119 36.8535 10.6573 35.9837 11.7089C35.2352 12.6137 34.0263 13.371 32.9111 13.6335C32.3042 13.7763 31.0261 13.7763 30.4191 13.6335C28.8653 13.2678 27.3887 12.1116 26.679 10.7049C26.2063 9.76799 26.0856 9.24174 26.0892 8.13581C26.092 7.30359 26.1283 7.04103 26.3215 6.45645C27.2255 3.72049 29.9878 2.1155 32.7959 2.6945ZM23.819 17.0977C22.1553 18.8523 21.1898 20.8089 20.8341 23.1469C20.7363 23.7893 20.71 25.074 20.7096 29.2163L20.7091 34.4708L15.1022 34.4487L9.49524 34.4267L9.45227 31.3816C9.41266 28.5734 9.39659 28.3178 9.24621 28.0962C8.71371 27.3119 7.50768 27.4194 7.06772 28.2903C6.87859 28.6646 6.87438 28.7363 6.87438 31.5713V34.4696H5.41357H3.95277V30.2236V25.9776L4.61872 25.9763C6.71515 25.9723 8.45678 24.7807 9.19285 22.8467C9.4973 22.0468 9.53262 20.7971 9.27526 19.9317C9.06567 19.2268 8.65313 18.5134 8.14511 17.9768L7.8386 17.6533L8.21686 17.432C8.85747 17.0572 9.79831 16.6988 10.5664 16.537C11.2347 16.3963 11.8857 16.382 17.9042 16.3765L24.5087 16.3705L23.819 17.0977ZM33.2668 16.5064C34.0798 16.6603 35.0546 17.0159 35.7345 17.4066C36.1841 17.6649 36.1905 17.674 36.0114 17.7993C35.6282 18.0672 34.9722 19.137 34.7449 19.8647C34.5473 20.4974 34.5264 20.6811 34.5641 21.456C34.6304 22.8172 35.0376 23.7214 36.0142 24.6761C36.8619 25.5047 38.0754 25.9738 39.3773 25.9763L40.0433 25.9776V30.2236V34.4696H38.5825H37.1217V31.5713C37.1217 28.7363 37.1174 28.6646 36.9283 28.2903C36.5702 27.5813 35.7811 27.3613 35.1023 27.7812C34.5845 28.1016 34.5906 28.062 34.5438 31.3816L34.5008 34.4267L28.8939 34.4487L23.287 34.4708V29.249C23.287 23.5202 23.3095 23.1949 23.7992 21.8555C24.7873 19.1528 27.1152 17.1245 29.9036 16.5365C30.8345 16.3403 32.3185 16.327 33.2668 16.5064ZM5.63321 19.319C7.28968 20.0889 7.28968 22.4307 5.63321 23.2006C5.23707 23.3848 5.08317 23.4026 3.88832 23.4034L2.57789 23.4042V21.2598V19.1154L3.88832 19.1162C5.08317 19.117 5.23707 19.1348 5.63321 19.319ZM41.4181 21.2598V23.4042L40.1077 23.4034C38.9129 23.4026 38.759 23.3848 38.3628 23.2006C37.3684 22.7384 36.8959 21.6458 37.2214 20.5614C37.3626 20.0908 37.8547 19.5551 38.3628 19.319C38.759 19.1348 38.9129 19.117 40.1077 19.1162L41.4181 19.1154V21.2598Z" fill="#205694"/>
</svg>
