<svg width="29" height="29" viewBox="0 0 29 29" fill="none" xmlns="http://www.w3.org/2000/svg">
<circle cx="12.5" cy="12.5" r="12.5" fill="white"/>
<path fill-rule="evenodd" clip-rule="evenodd" d="M12.5355 3.09353C12.4194 3.15485 12.3059 3.27171 12.2435 3.3941C12.1453 3.58656 12.1413 3.6902 12.1413 6.03714C12.1413 8.38505 12.1453 8.48767 12.2436 8.68038C12.3585 8.90581 12.6511 9.08551 12.9031 9.08551C13.1551 9.08551 13.4477 8.90581 13.5627 8.68038C13.6609 8.48767 13.6649 8.38505 13.6649 6.03714C13.6649 3.68923 13.6609 3.58661 13.5627 3.3939C13.3753 3.02642 12.9165 2.89229 12.5355 3.09353ZM6.05935 5.78286C5.72417 5.9873 5.59924 6.41133 5.76886 6.7689C5.81137 6.85847 6.61692 7.70028 7.55904 8.63953C9.40645 10.4814 9.38314 10.4636 9.84071 10.3892C10.2706 10.3195 10.5296 9.80477 10.361 9.35555C10.2923 9.1728 6.99258 5.86033 6.7773 5.75816C6.55435 5.65233 6.25655 5.66255 6.05935 5.78286ZM19.0227 5.7603C18.8514 5.84824 15.7674 8.89966 15.5388 9.20745C15.0836 9.82017 15.7182 10.6247 16.4421 10.3528C16.6247 10.2841 19.9358 6.983 20.038 6.76763C20.3461 6.11807 19.6573 5.43463 19.0227 5.7603ZM3.39414 12.2386C3.17973 12.3519 3 12.6516 3 12.896C3 13.1481 3.17963 13.4408 3.40496 13.5558C3.59759 13.6541 3.70018 13.6581 6.04711 13.6581C8.39405 13.6581 8.49663 13.6541 8.68926 13.5558C8.91459 13.4408 9.09422 13.1481 9.09422 12.896C9.09422 12.6439 8.91459 12.3512 8.68926 12.2362C8.49638 12.1377 8.39648 12.134 6.03645 12.1361C3.69515 12.1383 3.57545 12.1429 3.39414 12.2386ZM12.7645 12.3861C12.5428 12.4868 12.3724 12.7041 12.3168 12.9571C12.2936 13.063 12.8429 14.7709 14.5021 19.7521C16.6118 26.0854 16.7268 26.4129 16.8919 26.5579C16.9873 26.6417 17.144 26.725 17.2402 26.743C17.6232 26.8149 17.6852 26.7706 18.9224 25.5417L20.0917 24.3803L22.3504 26.6413C24.7603 29.0537 24.7613 29.0546 25.1755 28.979C25.3476 28.9477 25.5816 28.7332 27.1371 27.1816C29.022 25.3014 29.0538 25.2612 28.9797 24.853C28.9482 24.6796 28.6879 24.4007 26.6637 22.3713L24.3831 20.085L25.5454 18.9165C26.5247 17.9319 26.7131 17.7186 26.7424 17.5614C26.7912 17.3001 26.7319 17.0829 26.5571 16.8837C26.4152 16.7221 26.0491 16.5935 19.7682 14.4996C16.1168 13.2823 13.0956 12.2868 13.0543 12.2874C13.0131 12.288 12.8826 12.3324 12.7645 12.3861ZM24.5305 17.706C24.5432 17.7172 24.1398 18.1427 23.6341 18.6517C23.1284 19.1606 22.6781 19.6501 22.6335 19.7396C22.5396 19.9274 22.5296 20.1445 22.6054 20.3485C22.6347 20.4271 23.6745 21.509 24.9163 22.7527L27.174 25.0139L26.0944 26.0931L25.0147 27.1723L22.7805 24.9319C21.5215 23.6693 20.475 22.6604 20.3829 22.6203C20.1673 22.5264 19.9437 22.5303 19.7439 22.6314C19.6545 22.6766 19.1648 23.1268 18.6557 23.6318C18.1467 24.1368 17.7213 24.5399 17.7105 24.5276C17.6997 24.5152 16.9249 22.2046 15.9888 19.3927L14.2868 14.2802L19.3972 15.983C22.2079 16.9195 24.5179 17.6948 24.5305 17.706ZM9.22118 15.5278C8.87493 15.786 5.80217 18.9082 5.74534 19.0595C5.50427 19.7013 6.10054 20.2978 6.74211 20.0567C6.92478 19.9881 10.2359 16.687 10.338 16.4716C10.4904 16.1505 10.4153 15.7989 10.1394 15.5411C10.0392 15.4474 9.93604 15.4123 9.71563 15.3968C9.455 15.3785 9.40294 15.3922 9.22118 15.5278Z" fill="black"/>
</svg>
