<svg width="23" height="30" viewBox="0 0 23 30" fill="none" xmlns="http://www.w3.org/2000/svg">
<path fill-rule="evenodd" clip-rule="evenodd" d="M10.5627 0.0241815C10.4636 0.0412102 10.1553 0.0916469 9.87774 0.136311C9.60016 0.180903 9.03958 0.326152 8.63192 0.459062C5.48943 1.48381 3.17825 4.0309 2.44009 7.28323C2.28955 7.94649 2.26965 10.0049 2.40563 10.8432C2.83376 13.4817 3.94879 16.4342 5.50342 19.0456L6.00495 19.8881L5.63414 19.9759C4.95106 20.1376 3.63486 20.622 2.96786 20.9571C1.57099 21.659 0.743498 22.3901 0.27773 23.3339C0.00829135 23.8798 0 23.9196 0 24.6616C0 25.398 0.00987799 25.4466 0.265906 25.9637C1.13428 27.7182 3.72095 29.0739 7.33844 29.6707C8.85277 29.9205 9.85784 30 11.5 30C17.083 30 21.5284 28.4053 22.731 25.9711C22.9905 25.4458 23 25.3994 23 24.6616C23 23.9196 22.9917 23.8798 22.7223 23.3339C22.2565 22.3901 21.429 21.659 20.0321 20.9571C19.3651 20.622 18.0489 20.1376 17.3659 19.9759L16.9951 19.8881L17.4966 19.0456C19.9639 14.901 21.1749 10.2384 20.5515 7.28323C19.8112 3.77475 17.0445 1.0135 13.4467 0.192665C12.8594 0.058672 10.9954 -0.0502107 10.5627 0.0241815ZM12.6782 2.40105C13.4176 2.53014 14.2946 2.8394 14.9311 3.19563C16.4906 4.06842 17.7656 5.69755 18.2058 7.37978C19.0532 10.6184 17.1006 16.345 13.7158 20.5481C13.1278 21.2783 11.6387 22.785 11.505 22.785C11.3681 22.785 9.87082 21.2776 9.28638 20.5513C5.91338 16.3601 3.94966 10.6268 4.78494 7.40915C5.66622 4.01459 9.17332 1.78939 12.6782 2.40105ZM10.6429 5.87036C8.81477 6.36239 7.68373 8.25668 8.14957 10.0465C8.63192 11.8998 10.522 13.043 12.3261 12.5727C14.1726 12.0914 15.3202 10.1982 14.8532 8.40388C14.3665 6.53368 12.4541 5.38288 10.6429 5.87036ZM11.9563 8.16367C12.6971 8.47344 12.8777 9.44537 12.3016 10.022C11.8339 10.49 11.1661 10.49 10.6984 10.022C9.8068 9.12962 10.7906 7.67626 11.9563 8.16367ZM8.035 22.6046C8.72284 23.4064 9.68228 24.316 10.4206 24.866C11.3382 25.5497 11.6616 25.5487 12.5908 24.8596C13.2125 24.3986 14.5179 23.145 15.1551 22.3971L15.5163 21.973L16.2558 22.1315C18.317 22.5731 20.1901 23.5147 20.6028 24.3165C20.7234 24.5508 20.7297 24.6201 20.6524 24.8546C20.3562 25.7528 18.3699 26.7457 15.8505 27.2549C13.8582 27.6576 10.7773 27.7728 8.79624 27.5186C5.56074 27.1035 2.93823 26.0667 2.42134 24.9981C2.21744 24.5765 2.27325 24.3634 2.69944 23.9369C3.3567 23.2792 4.70318 22.6412 6.2423 22.2582C7.14218 22.0343 7.2486 22.0104 7.39555 21.9996C7.45784 21.995 7.74566 22.2672 8.035 22.6046Z" fill="white"/>
</svg>
