<svg width="32" height="32" viewBox="0 0 32 32" fill="none" xmlns="http://www.w3.org/2000/svg">
<path fill-rule="evenodd" clip-rule="evenodd" d="M4.3313 0.079432C2.08466 0.536525 0.412815 2.27622 0.0629727 4.52101C0.00509955 4.89216 -0.00971917 7.93756 0.00570033 16.3069C0.0283957 28.6272 -0.0018425 27.6565 0.391789 28.709C0.834348 29.8923 2.13199 31.1903 3.31622 31.6341C4.36248 32.0262 3.43824 31.9996 16.0127 31.9996C28.5872 31.9996 27.663 32.0262 28.7093 31.6341C29.8938 31.1902 31.1905 29.893 31.6342 28.708C32.0262 27.6613 31.9996 28.5859 31.9996 16.0064C31.9996 5.45677 31.9903 4.4535 31.8883 4.08656C31.6918 3.37938 31.4991 2.93518 31.1724 2.43668C30.4131 1.27769 29.4315 0.570916 27.9622 0.125308C27.625 0.0230716 26.6356 0.0127211 16.1796 0.00243733C6.94514 -0.00671121 4.68235 0.00797987 4.3313 0.079432ZM27.4577 2.21885C28.6512 2.52984 29.6051 3.53357 29.8288 4.71367C29.8681 4.92088 29.897 6.21436 29.897 7.76841C29.897 10.299 29.8898 10.4638 29.7792 10.4638C29.6674 10.4638 2.80104 6.6372 2.34546 6.5564L2.12852 6.51787V5.73363C2.12852 4.50639 2.36802 3.81798 3.04007 3.11307C3.43751 2.69618 3.98373 2.37158 4.53903 2.22219C5.09734 2.07194 26.882 2.06881 27.4577 2.21885ZM8.03205 9.52841C11.1114 9.9688 13.6457 10.344 13.6638 10.3621C13.688 10.3864 10.3431 27.2875 9.86063 29.5789L9.79381 29.8961H7.43883C6.11609 29.8961 4.92632 29.8663 4.72453 29.8279C3.85403 29.6628 2.94762 29.0023 2.53904 28.2353C2.10629 27.4231 2.12852 27.9832 2.12852 17.8955V8.72761H2.28091C2.36475 8.72761 4.95276 9.08794 8.03205 9.52841ZM22.7564 11.6318C26.4818 12.1639 29.6125 12.6171 29.7134 12.6387L29.897 12.6781V19.8089C29.897 24.2724 29.872 27.0742 29.8303 27.2994C29.604 28.5204 28.5291 29.595 27.3009 29.8279C26.7305 29.9362 12.0077 29.9208 12.0077 29.812C12.0077 29.7657 12.8638 25.4463 13.9101 20.2134C14.9564 14.9804 15.8125 10.6911 15.8125 10.6815C15.8125 10.6425 16.2524 10.7026 22.7564 11.6318ZM21.6198 12.841C20.0396 13.1322 18.8275 13.7669 17.8596 14.8101C16.0029 16.8112 15.6374 19.6705 16.9212 22.1499C17.2422 22.7697 21.5017 28.3996 21.842 28.6539C22.1063 28.8512 22.7354 28.8512 22.9996 28.6539C23.3323 28.4053 27.5925 22.7721 27.9183 22.1499C29.2055 19.6915 28.838 16.8103 26.9821 14.8101C25.8082 13.5449 24.3596 12.8891 22.6211 12.8358C22.1622 12.8217 21.7116 12.8241 21.6198 12.841ZM23.3716 15.0671C24.9627 15.4742 26.1223 16.6881 26.4537 18.2938C26.584 18.9247 26.5864 19.2594 26.4649 19.8945C26.3494 20.4982 26.1115 21.0991 25.8205 21.5223C25.3712 22.1756 22.4762 25.9229 22.4208 25.9229C22.3654 25.9229 19.4704 22.1756 19.0212 21.5223C18.7302 21.0991 18.4923 20.4982 18.3768 19.8945C18.2553 19.2594 18.2576 18.9247 18.3879 18.2938C18.8657 15.9795 21.1522 14.4993 23.3716 15.0671ZM21.9202 17.1328C21.3059 17.2942 20.7666 17.7366 20.4847 18.3102C20.2593 18.7687 20.2535 19.63 20.4727 20.0819C20.7017 20.5538 20.9731 20.8378 21.4313 21.0849C21.8182 21.2937 21.9009 21.3126 22.4208 21.3113C22.903 21.31 23.0394 21.2831 23.3291 21.1326C23.8322 20.8711 24.0416 20.6687 24.2942 20.2001C24.5013 19.8158 24.521 19.7301 24.521 19.2117C24.521 18.6929 24.5014 18.6078 24.2933 18.2217C23.9183 17.5259 23.3381 17.1521 22.5619 17.1062C22.3191 17.0918 22.0303 17.1038 21.9202 17.1328Z" fill="#205694"/>
</svg>
