<svg  viewBox="0 0 20 20"  xmlns="http://www.w3.org/2000/svg">
<path fill-rule="evenodd" clip-rule="evenodd" d="M9.54476 0.0936899C9.42286 0.154428 9.30928 0.248896 9.25108 0.337971C9.19887 0.417821 8.46402 1.88585 7.61805 3.6002C6.77209 5.31458 6.06944 6.71722 6.05666 6.71722C6.04384 6.71722 5.55002 5.92231 4.95931 4.95078C4.36856 3.97924 3.82831 3.1291 3.75874 3.06153C3.62648 2.93309 3.40921 2.84781 3.21415 2.84781C3.03382 2.84781 2.71411 3.0278 2.60436 3.19109C2.40695 3.48486 0.0682661 7.91212 0.0249614 8.07409C-0.0597719 8.39095 0.117707 8.78571 0.406574 8.92278C0.724754 9.07381 1.07487 9.03046 1.30198 8.81194C1.37991 8.7369 1.77341 8.04165 2.3384 6.98061C2.83934 6.03988 3.26132 5.26271 3.27617 5.25353C3.29634 5.24106 5.16473 8.25674 5.2252 8.3994C5.23133 8.41386 4.07383 10.7806 2.65295 13.6589C1.23206 16.5372 0.0493887 18.9669 0.0248442 19.0583C-0.00958849 19.1863 -0.00845507 19.2668 0.0296515 19.4093C0.122162 19.7553 0.360065 19.956 0.726825 19.9973C0.954605 20.0229 1.27959 19.8645 1.41118 19.6636C1.46383 19.5833 2.36506 17.7763 3.41394 15.6481C4.46279 13.52 5.33209 11.7673 5.34569 11.7534C5.35929 11.7394 5.69772 12.2583 6.09778 12.9064C6.91423 14.229 6.97575 14.2985 7.35991 14.3303C7.61516 14.3515 7.88511 14.2405 8.01909 14.0592C8.06548 13.9965 8.53605 13.0999 9.06481 12.0667C9.59357 11.0336 10.0399 10.1855 10.0566 10.1823C10.0734 10.1789 10.3052 10.5808 10.5717 11.0752C10.8718 11.6318 11.1024 12.0135 11.1772 12.0775C11.4124 12.2784 11.747 12.3125 12.0539 12.1668C12.3428 12.0298 12.5202 11.635 12.4355 11.3181C12.3658 11.0576 10.7157 8.0209 10.5635 7.873C10.4275 7.74093 10.2115 7.65526 10.0147 7.65526C9.85739 7.65526 9.52576 7.82692 9.43013 7.95789C9.38686 8.01715 8.9048 8.94037 8.35888 10.0095C7.813 11.0786 7.35307 11.9401 7.33685 11.9239C7.32063 11.9077 7.05286 11.4831 6.74184 10.9805L6.17634 10.0666L6.26412 9.88689C7.74718 6.85159 9.91039 2.50801 9.92907 2.52798C9.94279 2.54267 11.8843 6.38891 14.2435 11.0752C16.6028 15.7615 18.5736 19.6504 18.6231 19.7172C18.89 20.0777 19.556 20.0774 19.8313 19.7165C19.9729 19.5308 20.0333 19.261 19.9786 19.0583C19.9539 18.9669 18.7543 16.5511 17.3127 13.6898C15.8713 10.8285 14.6918 8.46756 14.6918 8.44329C14.6918 8.41906 14.9443 7.90564 15.2529 7.3024C15.7913 6.25004 15.8163 6.20927 15.8715 6.29534C15.903 6.34466 16.5244 7.45577 17.2522 8.76449C18.0617 10.2202 18.6262 11.1933 18.7062 11.2709C18.9359 11.4941 19.2757 11.5376 19.597 11.3851C19.8853 11.2483 20.0634 10.8533 19.979 10.5377C19.9141 10.2951 16.4839 4.1477 16.319 3.97858C16.1801 3.83603 15.9632 3.7461 15.7621 3.74762C15.6085 3.7488 15.3377 3.87696 15.2196 4.00433C15.1662 4.06202 14.8283 4.68723 14.4688 5.39369C14.1094 6.10015 13.8059 6.67767 13.7943 6.67712C13.7828 6.67653 13.0611 5.25759 12.1905 3.5239C11.0574 1.26753 10.5685 0.331756 10.4699 0.231073C10.2271 -0.0168423 9.87228 -0.0695288 9.54476 0.0936899Z" />
</svg>
