<svg width="35" height="36" viewBox="0 0 35 36" fill="none" xmlns="http://www.w3.org/2000/svg">
<path fill-rule="evenodd" clip-rule="evenodd" d="M33.5249 0.0831892C33.259 0.204722 32.9567 0.560024 32.7672 0.973769C32.6496 1.23071 32.622 1.4304 32.6219 2.02996C32.6218 2.43659 32.6457 2.85724 32.6751 2.96469C32.7261 3.15164 32.7199 3.15783 32.5344 3.10643C32.4278 3.07686 32.0103 3.05278 31.6068 3.05285C31.0072 3.05299 30.814 3.08038 30.5501 3.20247C29.4886 3.6936 29.0571 4.78317 29.3406 6.25649L29.3749 6.43428L28.4469 6.43252C27.571 6.43083 27.4966 6.44181 27.1218 6.62721C26.6915 6.84021 26.3865 7.14587 26.1392 7.61214C25.9974 7.8795 25.9816 8.00737 25.9816 8.88218V9.85486L25.742 9.80958C25.371 9.73938 24.4606 9.756 24.1567 9.83845C23.4837 10.0211 22.8965 10.6002 22.6966 11.2783C22.5832 11.6631 22.5644 12.4489 22.6571 12.9318C22.7123 13.2202 22.7075 13.2346 22.5666 13.1997C22.0901 13.0816 21.3434 13.0743 20.9141 13.1835C20.1228 13.3849 19.6592 13.8168 19.6086 14.3998C19.5689 14.8573 19.7464 15.1826 20.1493 15.3908C20.5463 15.596 20.7276 15.5905 21.1806 15.3596C21.5442 15.1741 21.5638 15.1719 22.0551 15.2592C23.4349 15.5046 23.7261 15.5042 24.2171 15.2563C24.3612 15.1835 24.5648 14.9934 24.6695 14.8339C24.9122 14.4644 24.9565 13.8513 24.8001 13.0242C24.6578 12.2714 24.6558 11.8961 24.794 11.8427C24.8518 11.8203 25.2947 11.8727 25.7781 11.9593C26.7405 12.1314 27.1075 12.1172 27.5482 11.8906C27.9858 11.6657 28.2526 11.1729 28.2526 10.5897C28.2526 10.4295 28.1876 9.93985 28.1082 9.50153C28.0287 9.06321 27.9806 8.66038 28.0011 8.6063C28.0519 8.47315 28.5193 8.47927 29.2039 8.62193C30.3015 8.85063 31.0818 8.64003 31.3874 8.03258C31.6036 7.60278 31.6275 7.25036 31.4918 6.49216C31.4234 6.10989 31.3663 5.65446 31.3649 5.48019C31.3623 5.17283 31.3691 5.16269 31.5917 5.14108C31.7179 5.12883 32.0594 5.16847 32.3504 5.22909C33.0801 5.38118 33.8028 5.37062 34.1702 5.20255C34.6295 4.99237 34.8504 4.59594 34.8806 3.9278C34.895 3.60664 34.8595 3.16424 34.7932 2.84133C34.6428 2.10875 34.6514 1.85393 34.8346 1.60425C35.0393 1.32534 35.0458 0.769925 34.8478 0.502567C34.517 0.0561507 33.9663 -0.118473 33.5249 0.0831892ZM19.3027 0.92265C19.1569 1.02165 19.0147 1.20993 18.9299 1.41596C18.8094 1.70902 18.8031 1.78936 18.8773 2.08319C19.0443 2.7431 19.1006 3.58946 19.0267 4.32929C18.8289 6.31211 18.048 7.93512 16.4144 9.75896C15.9218 10.309 15.8467 10.477 15.9034 10.903C15.9545 11.2873 16.182 11.5746 16.5459 11.7147C17.0883 11.9234 17.2935 11.8359 18.0155 11.0876C20.208 8.81528 21.384 5.72029 21.1221 2.91132C21.0415 2.04679 20.9142 1.47715 20.7426 1.21324C20.4483 0.760771 19.749 0.619593 19.3027 0.92265ZM24.8478 3.01954C23.9493 3.21135 23.7402 4.43364 24.5224 4.92174C24.9411 5.18304 25.6192 5.05264 25.907 4.65544C26.1121 4.37231 26.1384 3.78556 25.9589 3.49525C25.7199 3.10868 25.2909 2.92498 24.8478 3.01954ZM14.1301 4.65424C13.2735 5.23085 13.6677 6.55264 14.6963 6.55264C15.2563 6.55264 15.6636 6.17847 15.721 5.61143C15.7827 5.0006 15.3184 4.49441 14.6963 4.49441C14.4708 4.49441 14.2929 4.54461 14.1301 4.65424ZM9.3642 10.1882C9.25638 10.2598 9.1248 10.3808 9.07176 10.4572C9.01872 10.5335 6.95704 16.0117 4.49034 22.6311C0.964566 32.0924 0.00430087 34.7379 0.000178055 35.001C-0.00548208 35.3635 0.123234 35.5996 0.468012 35.8589C0.907546 36.1896 0.461304 36.3417 13.2987 31.4849C24.0112 27.4319 25.2386 26.9521 25.4676 26.7277C25.7857 26.4159 25.8673 26.0426 25.7043 25.6448C25.6225 25.4451 23.6087 23.3704 18.2053 17.9186C14.1423 13.8194 10.6954 10.3735 10.5455 10.2612C10.2116 10.0111 9.68019 9.97822 9.3642 10.1882ZM32.2706 10.4805C31.7742 10.5876 31.4553 10.9854 31.4553 11.4975C31.4553 12.1048 31.8763 12.5218 32.4885 12.521C33.0949 12.5202 33.4926 12.116 33.4926 11.5005C33.4926 10.8169 32.9212 10.34 32.2706 10.4805ZM14.7325 18.1897C15.1225 21.222 16.3225 24.3288 18.0299 26.7267C18.2333 27.0125 18.3998 27.2564 18.3998 27.2688C18.3998 27.3335 13.9945 28.9416 13.9084 28.9083C13.7331 28.8405 12.6786 27.5199 12.1062 26.6515C10.646 24.4359 9.75 22.0153 9.37776 19.2811C9.32765 18.9132 9.28531 17.9784 9.2837 17.2039L9.2807 15.7957L9.80052 14.4008L10.3203 13.006L12.4721 15.1754L14.6239 17.3447L14.7325 18.1897ZM30.908 14.7483C29.3798 15.0338 28.6645 15.2657 27.5472 15.8383C26.6278 16.3093 25.7722 16.9049 24.8793 17.6956C24.1917 18.3045 24.0483 18.5248 24.0483 18.9731C24.0483 19.568 24.4746 19.997 25.0658 19.997C25.4643 19.997 25.5647 19.9385 26.2365 19.3152C27.2555 18.3697 28.587 17.5658 29.7804 17.1757C30.9055 16.8078 32.3048 16.7144 33.4314 16.9319C34.1259 17.066 34.3069 17.0372 34.6442 16.7388C35.116 16.3214 35.119 15.6246 34.6508 15.2105C34.2867 14.8883 33.6207 14.7571 32.2357 14.7345C31.6015 14.7241 31.0041 14.7303 30.908 14.7483ZM22.7481 25.6251C22.6793 25.6872 20.6135 26.4632 20.517 26.4632C20.4748 26.4632 20.2358 26.186 19.9858 25.8471C18.7179 24.1282 17.7863 22.1786 17.2356 20.0908C17.2152 20.0134 18.4586 21.2166 19.9987 22.7646C21.5389 24.3126 22.7761 25.5998 22.7481 25.6251ZM7.64101 21.5013C8.18759 24.07 9.5651 26.9517 11.2681 29.089C11.5394 29.4295 11.761 29.7305 11.7604 29.7579C11.7598 29.7853 10.7994 30.1685 9.62617 30.6094C7.7693 31.3072 7.48203 31.3972 7.40852 31.3045C6.30759 29.916 5.87204 29.2707 5.28129 28.1531L4.92771 27.4842L6.07119 24.4212C6.70017 22.7366 7.26625 21.2217 7.32921 21.0547C7.39217 20.8878 7.4545 20.7621 7.46771 20.7754C7.48091 20.7886 7.5589 21.1153 7.64101 21.5013ZM30.6285 20.9795C29.907 21.2686 29.7366 22.211 30.3135 22.7214C31.0224 23.3485 32.026 22.8666 32.026 21.899C32.026 21.2203 31.2697 20.7226 30.6285 20.9795ZM4.35799 30.7239C4.55777 31.0333 4.87704 31.4871 5.0676 31.7324C5.25816 31.9778 5.40358 32.1875 5.39079 32.1984C5.33971 32.2425 2.86819 33.1569 2.85198 33.1377C2.82801 33.1094 3.94955 30.1158 3.97464 30.1411C3.98575 30.1522 4.15828 30.4145 4.35799 30.7239Z" fill="#205694"/>
</svg>
