<svg width="20" height="18" viewBox="0 0 20 18" fill="none" xmlns="http://www.w3.org/2000/svg">
<path fill-rule="evenodd" clip-rule="evenodd" d="M6.537 0.0529815C4.77133 0.371167 3.38723 1.59658 2.90145 3.27169C2.28473 5.3983 3.32557 7.63881 5.37156 8.58877C5.99246 8.87707 6.45242 8.97412 7.22219 8.97931C7.93333 8.98408 8.28213 8.92878 8.83715 8.72327C11.0611 7.89975 12.2797 5.51832 11.6276 3.26979C11.1788 1.72197 9.93479 0.529014 8.35707 0.133319C7.97351 0.0371081 6.89031 -0.0107231 6.537 0.0529815ZM12.7187 0.890345V1.78065L12.9211 1.8072C13.5472 1.88923 14.0492 2.08845 14.4393 2.40967C15.2256 3.0571 15.5888 4.07756 15.3818 5.05762C15.1737 6.0432 14.3389 6.89542 13.3579 7.12382C13.2055 7.15928 12.9994 7.18858 12.8998 7.18891L12.7187 7.18955V8.10303V9.01646L13.0858 8.98696C14.4494 8.87732 15.7324 8.12899 16.4896 7.00147C17.6621 5.25553 17.4802 2.99201 16.0424 1.43743C15.3021 0.636835 14.1854 0.0991663 13.1129 0.0266384L12.7187 0V0.890345ZM7.9626 1.89552C9.09459 2.18614 9.9019 3.17409 9.9774 4.36104C10.0263 5.13044 9.74429 5.842 9.16545 6.40947C8.61903 6.9452 8.02579 7.18828 7.2648 7.18828C6.50381 7.18828 5.91056 6.9452 5.36415 6.40947C4.96657 6.01969 4.7081 5.56147 4.60171 5.05762C4.28231 3.54508 5.31621 2.06882 6.86202 1.83021C7.17396 1.78208 7.62501 1.80885 7.9626 1.89552ZM3.81003 10.8628C2.13649 11.1435 0.759672 12.3103 0.223952 13.902C0.0285479 14.4825 0 14.7625 0 16.0972C0 17.3006 0.00315302 17.3485 0.093995 17.5167C0.210743 17.7329 0.402568 17.8963 0.609093 17.9555C0.719151 17.987 2.76186 17.997 7.357 17.9883L13.947 17.9759L14.1318 17.8473C14.2334 17.7766 14.3645 17.6342 14.4231 17.5307C14.5274 17.3465 14.5299 17.3211 14.5433 16.3083C14.5585 15.1568 14.5137 14.6264 14.3543 14.0754C13.8769 12.4242 12.4949 11.1814 10.8013 10.88C10.5506 10.8354 9.78447 10.8239 7.24349 10.8266C5.46245 10.8285 3.91741 10.8448 3.81003 10.8628ZM14.7213 11.7005V12.5807L15.3072 12.6056C15.9667 12.6337 16.254 12.6966 16.6711 12.9048C17.2047 13.171 17.6268 13.5957 17.8929 14.134C18.0951 14.5429 18.1726 14.9638 18.1726 15.6522V16.2239H17.2566H16.3405V17.1119V18L17.8708 17.9879L19.4011 17.9759L19.5858 17.8473C19.6873 17.7766 19.8184 17.6342 19.877 17.5307C19.9813 17.3465 19.9838 17.3211 19.9972 16.3083C20.0125 15.1568 19.9676 14.6264 19.8083 14.0754C19.3308 12.4242 17.9489 11.1814 16.2553 10.88C16.0795 10.8487 15.6624 10.8224 15.3285 10.8216L14.7213 10.8202V11.7005ZM10.6841 12.6894C11.4643 12.9176 12.0939 13.4358 12.439 14.134C12.6412 14.5429 12.7187 14.9638 12.7187 15.6522V16.2239H7.2648H1.81087V15.6306C1.81087 14.9379 1.87964 14.5689 2.08983 14.1342C2.46995 13.3479 3.26226 12.7687 4.13505 12.6391C4.27456 12.6184 5.75006 12.6051 7.41393 12.6096C10.1192 12.6169 10.4651 12.6253 10.6841 12.6894Z" fill="#A9AAAE"/>
</svg>
