<svg width="38" height="38" viewBox="0 0 38 38" fill="none" xmlns="http://www.w3.org/2000/svg">
<path fill-rule="evenodd" clip-rule="evenodd" d="M17.6595 0.0186519C17.5163 0.0354563 17.0811 0.0836391 16.6924 0.125799C14.2381 0.391994 11.5202 1.31252 9.3271 2.62052C6.53588 4.28513 4.26725 6.55277 2.60191 9.34276C1.30405 11.517 0.442036 14.0437 0.0903265 16.7048C-0.0301088 17.6159 -0.0301088 20.4038 0.0903265 21.3149C0.442036 23.976 1.30405 26.5027 2.60191 28.677C4.26725 31.467 6.53588 33.7346 9.3271 35.3992C11.5023 36.6965 14.0301 37.5582 16.6924 37.9097C17.6039 38.0301 20.393 38.0301 21.3045 37.9097C25.9365 37.298 29.8628 35.2644 33.0672 31.8176C34.84 29.9106 36.2269 27.5387 37.078 24.9584C37.7489 22.9244 38 21.3047 38 19.0099C38 17.3122 37.9283 16.5621 37.6234 15.069C36.5781 9.94951 33.2875 5.37445 28.6698 2.62052C26.5168 1.33647 23.9493 0.456609 21.3789 0.121858C20.7265 0.0369435 18.1207 -0.035405 17.6595 0.0186519ZM21.6392 2.42229C23.4174 2.71919 24.7303 3.13663 26.3257 3.91246C28.4602 4.95032 30.3511 6.41253 31.8106 8.15388C35.6836 12.7748 36.8208 18.9521 34.8426 24.6238C34.2563 26.3046 33.0557 28.3803 31.8106 29.8659C29.047 33.163 24.8595 35.342 20.5234 35.7393C16.0756 36.1467 11.6257 34.7373 8.1377 31.8164C4.83915 29.054 2.65919 24.8684 2.26173 20.5342C1.85408 16.0883 3.26412 11.6404 6.18633 8.15388C8.39419 5.51974 11.6324 3.51332 14.9874 2.7006C15.729 2.52103 16.9473 2.31603 17.6595 2.25112C18.4601 2.1781 20.7722 2.27752 21.6392 2.42229ZM12.4659 7.67518C11.7753 7.86099 11.4086 8.14042 9.99459 9.55891C8.72574 10.8317 8.59095 10.9927 8.30678 11.5743C7.89467 12.4176 7.76538 12.9337 7.71338 13.9434C7.39426 20.1385 14.801 28.5932 21.8996 30.1367C22.7664 30.3252 24.6291 30.327 25.3215 30.1401C25.9919 29.9591 26.6607 29.6344 27.1641 29.2456C27.9365 28.6489 29.8755 26.6001 30.1068 26.136C30.4089 25.53 30.5072 24.8669 30.3933 24.2033C30.2358 23.285 29.9868 22.9238 28.4489 21.3823C27.2999 20.2304 26.9885 19.9601 26.5832 19.7625C25.8923 19.4258 25.2439 19.338 24.5265 19.4843C23.7795 19.6365 23.3288 19.9201 22.4808 20.7712L21.7899 21.4647L19.1698 18.8465L16.5496 16.2284L17.3095 15.4442C18.1602 14.5663 18.4303 14.1111 18.5481 13.3575C18.6479 12.7191 18.5415 12.0498 18.2409 11.4256C18.0467 11.0222 17.7794 10.7131 16.625 9.55758C15.5431 8.47451 15.1446 8.12421 14.7955 7.94962C14.019 7.56126 13.2335 7.46869 12.4659 7.67518ZM13.619 9.86772C13.7342 9.91054 14.373 10.4878 15.0386 11.1504C16.7849 12.8886 16.784 12.8652 15.1641 14.4742C14.567 15.0671 14.0307 15.6427 13.9722 15.7531C13.8339 16.0138 13.8365 16.4351 13.9782 16.7335C14.0401 16.8639 15.6887 18.5645 17.6418 20.5127C20.7563 23.6194 21.2272 24.0611 21.4719 24.1059C22.0861 24.2184 22.2152 24.1404 23.4965 22.8818C24.7311 21.6691 24.8754 21.575 25.3587 21.6673C25.6657 21.7258 28.0348 24.057 28.1538 24.4177C28.3223 24.9277 28.2362 25.063 26.9017 26.3841C26.2167 27.0623 25.5543 27.6688 25.4298 27.7318C23.7685 28.5716 20.7789 27.8661 17.8454 25.942C13.2335 22.9169 9.75595 17.6899 9.94378 14.0652C10.008 12.8272 10.1094 12.641 11.4778 11.2488C12.9437 9.75745 13.0825 9.66792 13.619 9.86772Z" fill="#205694"/>
</svg>
