<svg width="21" height="20" viewBox="0 0 21 20" fill="none" xmlns="http://www.w3.org/2000/svg">
<path fill-rule="evenodd" clip-rule="evenodd" d="M10.0576 0.100343C9.94869 0.15853 9.80485 0.275797 9.7379 0.360952C9.67099 0.446107 9.01755 1.73336 8.28578 3.22156C7.55406 4.70976 6.93819 5.94549 6.91718 5.96759C6.89614 5.98973 5.46556 6.21353 3.73802 6.46492C0.676687 6.91046 0.592403 6.92536 0.410581 7.05282C0.0251708 7.32305 -0.111957 7.85066 0.0985715 8.25304C0.156701 8.36414 1.04248 9.25983 2.43611 10.6167C3.67026 11.8184 4.68001 12.8308 4.68001 12.8667C4.68001 12.9025 4.44825 14.2797 4.16499 15.9271C3.88173 17.5745 3.65043 18.9973 3.65096 19.0888C3.65307 19.4426 3.94752 19.8325 4.30051 19.9488C4.69658 20.0793 4.73402 20.0637 7.49982 18.6085C8.91526 17.8638 10.1748 17.2052 10.2988 17.1448L10.5243 17.035L12.9202 18.2954C16.3161 20.0819 16.1353 19.9932 16.3831 19.9932C16.8995 19.9932 17.3499 19.5754 17.3529 19.0937C17.3534 19.0049 17.1221 17.5834 16.8388 15.9348C16.5556 14.2863 16.3238 12.9062 16.3238 12.8681C16.3238 12.8299 17.3333 11.8161 18.5671 10.6153C19.979 9.24105 20.8447 8.36566 20.9029 8.25304C21.1565 7.76313 20.8907 7.10788 20.3675 6.93341C20.2987 6.91042 18.9022 6.69972 17.2643 6.46519C15.6263 6.23066 14.2379 6.02376 14.1789 6.00542C14.0907 5.97801 13.8218 5.47057 12.6563 3.13211C11.3095 0.429782 11.2315 0.285681 11.0486 0.15929C10.7778 -0.0277918 10.3455 -0.0535081 10.0576 0.100343ZM11.5767 5.22369C12.206 6.4994 12.6888 7.42372 12.7776 7.52292C12.8592 7.61411 13.0103 7.71944 13.1134 7.75692C13.2165 7.79439 14.2985 7.96676 15.5177 8.13998C16.7369 8.31315 17.792 8.46982 17.8622 8.48811C17.9861 8.52036 17.9376 8.57211 16.2665 10.1926C15.3186 11.1117 14.503 11.9369 14.4541 12.0263C14.4051 12.1157 14.3525 12.2561 14.3371 12.3385C14.3187 12.4365 14.4499 13.3067 14.7166 14.8569C14.9408 16.1598 15.1136 17.2362 15.1007 17.2491C15.0878 17.262 14.1335 16.7768 12.9801 16.1709C11.8268 15.565 10.7972 15.0477 10.6922 15.0213C10.5608 14.9883 10.4458 14.9874 10.3229 15.0186C10.2247 15.0434 9.19561 15.561 8.03606 16.1688C6.87652 16.7765 5.91725 17.2632 5.90435 17.2503C5.89145 17.2374 6.06508 16.1559 6.29025 14.8468C6.55994 13.2785 6.68932 12.4192 6.66957 12.3277C6.65305 12.2513 6.60379 12.1183 6.56003 12.0322C6.51628 11.9461 5.70224 11.121 4.75103 10.1985C3.09081 8.58856 3.0265 8.52005 3.14544 8.48834C3.21356 8.47013 4.26688 8.31347 5.48612 8.1402C6.70536 7.96694 7.78819 7.79413 7.89244 7.7562C8.00825 7.71403 8.14753 7.6104 8.25071 7.48955C8.35905 7.36267 8.7883 6.53961 9.44949 5.19108C10.016 4.03563 10.4896 3.09025 10.5019 3.0903C10.5142 3.0903 10.9979 4.05035 11.5767 5.22369Z" fill="#A9AAAE"/>
</svg>
