<svg width="14" height="11" viewBox="0 0 14 11" fill="none" xmlns="http://www.w3.org/2000/svg">
<path fill-rule="evenodd" clip-rule="evenodd" d="M7.45757 8.62072C6.91988 9.11078 6.38799 9.59218 5.86068 10.0779C5.67631 10.2478 5.46892 10.3416 5.20448 10.3282C5.02438 10.3192 4.92328 10.2443 4.86809 10.0837C4.46455 8.90981 4.05443 7.73785 3.65271 6.56338C3.61357 6.44902 3.55462 6.39408 3.43185 6.35892C2.48034 6.08644 1.53073 5.80805 0.582336 5.52623C0.441914 5.48451 0.299737 5.43087 0.177902 5.35516C-0.0341456 5.22342 -0.0644065 5.01397 0.129233 4.86231C0.308154 4.72216 0.520272 4.60482 0.737584 4.52432C1.93989 4.07901 3.14832 3.64812 4.35457 3.2121C7.25623 2.16326 10.158 1.11451 13.0594 0.0651545C13.6157 -0.136014 14.0478 0.142979 13.9957 0.704722C13.9614 1.07502 13.8585 1.4405 13.7759 1.80607C13.1329 4.65152 12.4874 7.49646 11.8427 10.3416C11.8415 10.347 11.8411 10.3527 11.8398 10.3581C11.6821 11.009 11.1772 11.1869 10.6015 10.7902C9.60204 10.1014 8.60512 9.40946 7.60698 8.71908C7.55978 8.68644 7.51097 8.65581 7.45757 8.62072ZM5.24914 9.51677C5.26468 9.44998 5.27546 9.41916 5.27861 9.38769C5.34204 8.74782 5.40833 8.10819 5.46448 7.46775C5.47698 7.32562 5.52225 7.22066 5.63964 7.12197C7.15424 5.8487 8.66414 4.57054 10.1752 3.29365C10.6051 2.93043 11.0367 2.56902 11.4624 2.20156C11.5071 2.16299 11.5168 2.08885 11.5427 2.03122C11.477 2.01378 11.4033 1.96957 11.3471 1.98423C11.2174 2.01811 11.0866 2.06644 10.9728 2.13347C8.72609 3.45695 6.48228 4.78469 4.23549 6.10804C4.12118 6.17536 4.08856 6.23078 4.1344 6.35976C4.49016 7.36064 4.83561 8.36474 5.18479 9.36767C5.19847 9.40698 5.21777 9.44455 5.24914 9.51677Z" fill="#37AEE2"/>
</svg>
