<svg width="25" height="26" viewBox="0 0 25 26" fill="none" xmlns="http://www.w3.org/2000/svg">
<path fill-rule="evenodd" clip-rule="evenodd" d="M12.8017 0.0186622C18.6175 0.0444129 21.2284 1.93983 21.8745 2.53599C24.02 4.39551 25.2073 8.52109 24.4071 15.0434C23.7011 20.8064 19.6848 21.8274 18.3368 22.1701C18.2046 22.2038 18.0981 22.2308 18.0228 22.2552C17.6584 22.3738 14.4497 23.1764 10.2777 22.8253C9.81733 23.3606 9.20633 24.0609 8.76389 24.5377C8.63053 24.6814 8.50568 24.8233 8.38634 24.959C7.78431 25.6435 7.32262 26.1685 6.61799 25.9497C5.91999 25.7335 5.95901 24.6735 5.95901 24.6735L5.96291 22.0551H5.95706C-0.143143 20.3391 -0.0537953 14.0107 0.0152636 10.6338C0.0843224 7.25697 0.739016 4.53324 2.60009 2.67177C5.9434 -0.394911 12.8017 0.0186622 12.8017 0.0186622ZM12.6945 1.85425C17.6141 1.87571 19.9718 3.35716 20.5181 3.85344C22.3331 5.40746 23.2578 9.12611 22.5816 14.574C21.9927 19.3314 18.8013 20.0754 17.6485 20.3442C17.5206 20.374 17.4178 20.398 17.3464 20.4209C17.0433 20.52 14.2243 21.2196 10.6813 20.9882C10.6813 20.9882 8.04064 24.1739 7.21584 25.0022C7.08708 25.1306 6.9357 25.1829 6.83465 25.1583C6.69419 25.1236 6.65517 24.9554 6.65517 24.7096C6.65752 24.3581 6.6778 20.3585 6.6778 20.3585C1.69088 18.9731 1.80668 13.8918 1.87241 11.0074C1.87467 10.9082 1.87687 10.8117 1.8788 10.718C1.93693 7.89787 2.46716 5.58694 4.04108 4.03292C6.86898 1.4715 12.6945 1.85425 12.6945 1.85425Z" fill="#8D7CFF"/>
<path fill-rule="evenodd" clip-rule="evenodd" d="M12.9018 8.43678C12.9113 8.25538 13.066 8.11599 13.2474 8.12545C13.9261 8.16086 14.4908 8.3663 14.8929 8.78212C15.2936 9.19634 15.49 9.77501 15.5244 10.47C15.5334 10.6514 15.3936 10.8058 15.2122 10.8148C15.0308 10.8238 14.8764 10.684 14.8674 10.5026C14.8379 9.90766 14.6747 9.50267 14.4201 9.23944C14.1671 8.9778 13.7809 8.812 13.2131 8.78238C13.0317 8.77291 12.8924 8.61818 12.9018 8.43678Z" fill="#8D7CFF"/>
<path fill-rule="evenodd" clip-rule="evenodd" d="M12.4032 6.66478C12.4165 6.48361 12.5741 6.3475 12.7553 6.36076C14.1365 6.46184 15.2482 6.93378 16.058 7.81774L16.0581 7.81787C16.8592 8.69313 17.2399 9.78196 17.2122 11.0591C17.2083 11.2407 17.0579 11.3847 16.8763 11.3808C16.6947 11.3769 16.5506 11.2265 16.5546 11.0449C16.5789 9.91859 16.2477 8.99938 15.5729 8.26197C14.9001 7.52762 13.9596 7.10847 12.7073 7.01682C12.5261 7.00356 12.39 6.84594 12.4032 6.66478Z" fill="#8D7CFF"/>
<path fill-rule="evenodd" clip-rule="evenodd" d="M11.8223 4.98043C11.8235 4.79878 11.9718 4.65255 12.1535 4.65382C14.0622 4.66711 15.6756 5.30255 16.971 6.56536C18.2773 7.83872 18.9232 9.57229 18.9396 11.7254C18.941 11.907 18.7949 12.0554 18.6132 12.0568C18.4316 12.0581 18.2832 11.912 18.2818 11.7304C18.2665 9.71283 17.6662 8.16175 16.5118 7.03639C15.3466 5.90048 13.8999 5.32381 12.1489 5.31162C11.9672 5.31035 11.821 5.16207 11.8223 4.98043Z" fill="#8D7CFF"/>
<path d="M13.2954 14.8916C13.2954 14.8916 13.7577 14.9306 14.0066 14.6239L14.492 14.0133C14.7261 13.7105 15.2911 13.5174 15.8443 13.8256C16.2589 14.0621 16.6614 14.3191 17.0503 14.5958C17.4174 14.8658 18.1693 15.4932 18.1716 15.4932C18.5298 15.7956 18.6125 16.2396 18.3687 16.7078C18.3687 16.7105 18.3667 16.7152 18.3667 16.7175C18.0981 17.1831 17.7572 17.603 17.3566 17.9614C17.3519 17.9637 17.3519 17.966 17.3476 17.9684C16.9996 18.2592 16.6577 18.4245 16.3219 18.4643C16.2724 18.4729 16.2222 18.4761 16.172 18.4736C16.024 18.4751 15.8766 18.4524 15.7358 18.4065L15.7249 18.3905C15.2076 18.2446 14.3437 17.8794 12.9052 17.0858C12.0728 16.632 11.2802 16.1085 10.5361 15.5209C10.1632 15.2265 9.80741 14.911 9.4706 14.5759L9.43471 14.54L9.39881 14.5041L9.36292 14.4682C9.35082 14.4565 9.33912 14.4444 9.32702 14.4323C8.99191 14.0955 8.6764 13.7398 8.38205 13.3668C7.79454 12.6228 7.27103 11.8304 6.81711 10.9981C6.02351 9.55921 5.65832 8.69617 5.5124 8.17803L5.4964 8.1671C5.45066 8.02628 5.42813 7.87896 5.42969 7.7309C5.42695 7.68078 5.42997 7.63051 5.43866 7.58108C5.48054 7.2458 5.6461 6.90363 5.93534 6.55456C5.93768 6.55027 5.94002 6.55027 5.94236 6.54559C6.30065 6.14501 6.72054 5.80415 7.1862 5.53585C7.18854 5.53585 7.19322 5.5335 7.19595 5.5335C7.66415 5.28965 8.10816 5.37237 8.41014 5.72859C8.41248 5.73093 9.03869 6.48277 9.30752 6.84991C9.58423 7.23919 9.84128 7.64209 10.0777 8.05708C10.3859 8.60994 10.1928 9.17607 9.89003 9.40938L9.27942 9.89475C8.9712 10.1437 9.01177 10.606 9.01177 10.606C9.01177 10.606 9.91617 14.0289 13.2954 14.8916Z" fill="#8D7CFF"/>
</svg>
