<svg width="26" height="26" viewBox="0 0 26 26" fill="none" xmlns="http://www.w3.org/2000/svg">
<circle cx="13" cy="13" r="12.1" stroke="#4E6BA4" stroke-width="1.8"/>
<path fill-rule="evenodd" clip-rule="evenodd" d="M12.8284 17.9622H13.7848C13.7848 17.9622 14.0735 17.931 14.221 17.7744C14.3571 17.6302 14.3526 17.36 14.3526 17.36C14.3526 17.36 14.3339 16.0949 14.9294 15.9083C15.5164 15.7245 16.2706 17.131 17.0694 17.6719C17.6739 18.0814 18.1332 17.9917 18.1332 17.9917L20.2698 17.9622C20.2698 17.9622 21.3873 17.8942 20.8574 17.028C20.8139 16.9572 20.5484 16.3868 19.2688 15.2154C17.9287 13.9893 18.1084 14.1876 19.7224 12.0664C20.7048 10.7752 21.0981 9.9864 20.9749 9.64883C20.8579 9.32686 20.1354 9.41209 20.1354 9.41209L17.7293 9.42657C17.7293 9.42657 17.5507 9.40262 17.4186 9.48061C17.2897 9.55692 17.2067 9.73518 17.2067 9.73518C17.2067 9.73518 16.8254 10.7345 16.318 11.5846C15.2469 13.3782 14.8181 13.4729 14.643 13.3615C14.2356 13.1019 14.3373 12.3193 14.3373 11.7628C14.3373 10.0243 14.6051 9.29957 13.817 9.11185C13.5554 9.05001 13.3628 9.00879 12.6939 9.0021C11.8357 8.99319 11.1092 9.00434 10.6979 9.2032C10.4239 9.33522 10.2127 9.62989 10.3415 9.64661C10.5002 9.66777 10.8606 9.74242 11.0516 9.99866C11.2979 10.3295 11.2894 11.0721 11.2894 11.0721C11.2894 11.0721 11.4312 13.1181 10.9584 13.3727C10.6341 13.5465 10.1895 13.1911 9.23416 11.5634C8.74492 10.7301 8.37544 9.80871 8.37544 9.80871C8.37544 9.80871 8.30426 9.63658 8.17715 9.54411C8.02291 9.4327 7.80767 9.39705 7.80767 9.39705L5.52133 9.41209C5.52133 9.41209 5.17841 9.42156 5.05242 9.56862C4.94 9.69952 5.04338 9.97025 5.04338 9.97025C5.04338 9.97025 6.83314 14.0991 8.8596 16.1796C10.7183 18.0875 12.8284 17.9622 12.8284 17.9622Z" fill="#4E6BA4"/>
</svg>
