<svg width="25" height="25" viewBox="0 0 25 25" fill="none" xmlns="http://www.w3.org/2000/svg">
<path d="M0.104053 12.3874C0.103251 14.5708 0.673737 16.7021 1.75807 18.5808L0 25L6.56932 23.2775C8.37926 24.2645 10.4171 24.7848 12.491 24.7855H12.4963C19.3259 24.7855 24.8855 19.2275 24.8884 12.3975C24.8896 9.08713 23.6017 5.97464 21.2622 3.63307C18.9224 1.29159 15.8111 0.00151634 12.4963 0C5.6656 0 0.106771 5.55709 0.104008 12.3874H0.104053ZM4.01613 18.2573L3.7709 17.8679C2.73982 16.2284 2.19549 14.3338 2.19638 12.3883C2.19857 6.71107 6.81883 2.09242 12.5002 2.09242C15.2515 2.09353 17.8372 3.16592 19.7821 5.11209C21.7268 7.05812 22.7969 9.64523 22.7961 12.3966C22.7937 18.074 18.1732 22.6933 12.4964 22.6933H12.4924C10.6438 22.6923 8.83103 22.1961 7.24997 21.2578L6.87368 21.0348L2.97533 22.0568L4.01613 18.2573Z" fill="#60D66A"/>
<path fill-rule="evenodd" clip-rule="evenodd" d="M9.39883 7.20874C9.16689 6.69316 8.92273 6.68278 8.70206 6.67373C8.52158 6.66602 8.31494 6.66651 8.10867 6.66651C7.90225 6.66651 7.56675 6.74405 7.28306 7.05389C6.9992 7.36373 6.19922 8.11273 6.19922 9.63614C6.19922 11.1597 7.30886 12.6317 7.46354 12.8385C7.61835 13.045 9.60565 16.271 12.7528 17.5122C15.3684 18.5436 15.9007 18.3384 16.4684 18.2868C17.0361 18.2352 18.3004 17.538 18.5584 16.8149C18.8164 16.092 18.8164 15.4724 18.739 15.3428C18.6616 15.2138 18.4552 15.1364 18.1455 14.9815C17.8358 14.8267 16.3136 14.0775 16.0297 13.9743C15.7458 13.8711 15.5394 13.8195 15.333 14.1294C15.1265 14.4391 14.5335 15.1364 14.3528 15.3429C14.1722 15.5498 13.9916 15.5756 13.6818 15.4207C13.3722 15.2654 12.3749 14.9388 11.1919 13.884C10.2714 13.0633 9.65003 12.0498 9.46929 11.7398C9.28867 11.4301 9.44999 11.2624 9.60529 11.108C9.74432 10.9693 9.915 10.7466 10.0698 10.5658C10.2243 10.385 10.276 10.256 10.3792 10.0495C10.4824 9.84273 10.4308 9.6619 10.3534 9.50709C10.276 9.35223 9.67418 7.82094 9.39883 7.20874Z" fill="#60D66A"/>
</svg>
